<svg
  aria-hidden="true"
  style="position: absolute; width: 0; height: 0; overflow: hidden;"
  version="1.1"
  xmlns="http://www.w3.org/2000/svg"
  xmlns:xlink="http://www.w3.org/1999/xlink"
  fill="none"
>
<defs>
<symbol id="gray-rate-star" viewBox="0 0 22 20">
<path
        d="M10.182.86c.3-.92 1.601-.92 1.901 0l1.751 5.374a1 1 0 0 0 .951.69h5.661c.97 0 1.372 1.241.587 1.81l-4.575 3.315a1 1 0 0 0-.364 1.12l1.748 5.366c.3.92-.753 1.688-1.537 1.12l-4.586-3.323a1 1 0 0 0-1.173 0L5.96 19.654c-.784.569-1.837-.198-1.537-1.12l1.748-5.366a1 1 0 0 0-.364-1.12L1.232 8.735c-.785-.569-.382-1.81.587-1.81h5.66a1 1 0 0 0 .952-.69L10.18.86Z"
        fill="#E5E5E5"
      />
</symbol>
<symbol id="black-rate-star" viewBox="0 0 22 20">
<path
        d="M9.793.86c.3-.92 1.602-.92 1.902 0l1.751 5.374a1 1 0 0 0 .95.69h5.662c.969 0 1.371 1.241.586 1.81l-4.575 3.315a1 1 0 0 0-.364 1.12l1.749 5.366c.3.92-.753 1.688-1.538 1.12l-4.585-3.323a1 1 0 0 0-1.174 0l-4.585 3.322c-.784.569-1.838-.198-1.538-1.12l1.749-5.366a1 1 0 0 0-.364-1.12L.844 8.735c-.785-.569-.383-1.81.587-1.81h5.66a1 1 0 0 0 .951-.69L9.793.86Z"
        fill="#070707"
      />
</symbol>

</defs>
</svg>
